<svg xmlns="http://www.w3.org/2000/svg" xmlns:xlink="http://www.w3.org/1999/xlink" style="display:none"><symbol id="icon-chat" viewBox="0 0 576 512"><path d="M512 160h-96V64c0-35.3-28.7-64-64-64H64C28.7 0 0 28.7 0 64v160c0 35.3 28.7 64 64 64h32v52c0 7.1 5.8 12 12 12 2.4 0 4.9-.7 7.1-2.4L224 288h128c35.3 0 64-28.7 64-64v-32h96c17.6 0 32 14.4 32 32v160c0 17.6-14.4 32-32 32h-64v49.6l-80.2-45.4-7.3-4.2H256c-17.6 0-32-14.4-32-32v-96l-32 18.1V384c0 35.3 28.7 64 64 64h96l108.9 61.6c2.2 1.6 4.7 2.4 7.1 2.4 6.2 0 12-4.9 12-12v-52h32c35.3 0 64-28.7 64-64V224c0-35.3-28.7-64-64-64zm-128 64c0 17.6-14.4 32-32 32H215.6l-7.3 4.2-80.3 45.4V256H64c-17.6 0-32-14.4-32-32V64c0-17.6 14.4-32 32-32h288c17.6 0 32 14.4 32 32v160z"/></symbol><symbol id="icon-quote" viewBox="0 0 123.961 123.961"><path d="M49.8 29.032c3.1-1.3 4.4-5 3-8l-4.9-10.3c-1.4-2.899-4.8-4.2-7.8-2.899-8.5 3.6-15.8 8.3-21.6 14C11.4 28.532 6.6 36.232 4 44.732c-2.6 8.601-4 20.3-4 35.2v30.7c0 3.3 2.7 6 6 6h39.3c3.3 0 6-2.7 6-6v-39.3c0-3.301-2.7-6-6-6H26.5c.2-10.101 2.6-18.2 7-24.301 3.6-4.898 9-8.898 16.3-11.999zM120.4 29.032c3.1-1.3 4.399-5 3-8l-4.9-10.199c-1.4-2.9-4.8-4.2-7.8-2.9-8.4 3.6-15.601 8.3-21.5 13.9-7.101 6.8-12 14.5-14.601 23-2.6 8.399-3.899 20.1-3.899 35.1v30.7c0 3.3 2.7 6 6 6H116c3.3 0 6-2.7 6-6v-39.3c0-3.301-2.7-6-6-6H97.1c.2-10.101 2.601-18.2 7-24.301 3.6-4.899 9-8.899 16.3-12z"/></symbol></svg>